# xmcd
#
# Track frame offsets: 
#        150
#        4699
#        12068
#        17769
#        22471
#        27674
#        34928
#        47068
#        54858
#        61421
#        76399
#
# Disc length: 1114 seconds
#
# Revision: 0
# Processed by: cddbd v1.5.2PL0 Copyright (c) Steve Scherf et al.
# Submitted via: ExactAudioCopy v1.0b3
#
DISCID=8504580b
DTITLE=Koljosen tiekiista - Heka Metal
DYEAR=2015
DGENRE=Heka Metal
TTITLE0=El‰ kuin Aulis, kuole kuin Kopsus
TTITLE1=Ladas Heka, Ladas vika
TTITLE2=Toivekonsertti
TTITLE3=Takaklaffi
TTITLE4=V‰ri oli fiksu
TTITLE5=N‰lj‰kymment‰seitsem‰n
TTITLE6=Huikkaa pullosta
TTITLE7=Se ykskin touhu
TTITLE8=Heka-blues
TTITLE9=Tuhat p‰iv‰‰ Yp‰j‰ll‰
TTITLE10=Ydinaseeton hautausmaa
EXTD=
EXTT0=
EXTT1=
EXTT2=
EXTT3=
EXTT4=
EXTT5=
EXTT6=
EXTT7=
EXTT8=
EXTT9=
EXTT10=
PLAYORDER=
